<svg width="25" height="25" viewBox="0 0 25 25" fill="none" xmlns="http://www.w3.org/2000/svg">
<g clip-path="url(#clip0_263_2)">
<path d="M8.66533 9.14941C9.19576 9.14941 9.70447 9.36013 10.0795 9.7352C10.4546 10.1103 10.6653 10.619 10.6653 11.1494C10.6653 11.6798 10.4546 12.1886 10.0795 12.5636C9.70447 12.9387 9.19576 13.1494 8.66533 13.1494C8.1349 13.1494 7.62619 12.9387 7.25112 12.5636C6.87604 12.1886 6.66533 11.6798 6.66533 11.1494C6.66533 10.619 6.87604 10.1103 7.25112 9.7352C7.62619 9.36013 8.1349 9.14941 8.66533 9.14941ZM12.6653 17.1494H4.66533V16.1494C4.66533 14.8194 7.33533 14.1494 8.66533 14.1494C9.99533 14.1494 12.6653 14.8194 12.6653 16.1494V17.1494ZM20.6653 8.14941H14.6653V10.1494H20.6653V8.14941ZM20.6653 12.1494H14.6653V14.1494H20.6653V12.1494ZM20.6653 16.1494H14.6653V18.1494H20.6653V16.1494ZM22.6653 4.14941H14.6653V6.14941H22.6653V20.1494H2.66533V6.14941H10.6653V4.14941H2.66533C2.1349 4.14941 1.62619 4.36013 1.25112 4.7352C0.876043 5.11027 0.665329 5.61898 0.665329 6.14941L0.665329 20.1494C0.665329 20.6798 0.876043 21.1886 1.25112 21.5636C1.62619 21.9387 2.1349 22.1494 2.66533 22.1494H22.6653C23.1958 22.1494 23.7045 21.9387 24.0795 21.5636C24.4546 21.1886 24.6653 20.6798 24.6653 20.1494V6.14941C24.6653 5.61898 24.4546 5.11027 24.0795 4.7352C23.7045 4.36013 23.1958 4.14941 22.6653 4.14941ZM13.6653 6.14941H11.6653V2.14941H13.6653V6.14941Z" fill="black"/>
</g>
<defs>
<clipPath id="clip0_263_2">
<rect width="24" height="24" fill="white" transform="translate(0.665329 0.149414)"/>
</clipPath>
</defs>
</svg>
