<svg width="25" height="25" viewBox="0 0 25 25" fill="none" xmlns="http://www.w3.org/2000/svg">
<path d="M15.895 3.32227H5.89499C5.36456 3.32227 4.85585 3.53298 4.48078 3.90805C4.1057 4.28312 3.89499 4.79183 3.89499 5.32227V19.3223C3.89499 19.8527 4.1057 20.3614 4.48078 20.7365C4.85585 21.1116 5.36456 21.3223 5.89499 21.3223H19.895C20.4254 21.3223 20.9341 21.1116 21.3092 20.7365C21.6843 20.3614 21.895 19.8527 21.895 19.3223V9.32227L15.895 3.32227ZM19.895 19.3223H5.89499V5.32227H14.895V10.3223H19.895M17.895 14.3223H7.89499V12.3223H17.895M14.895 17.3223H7.89499V15.3223H14.895" fill="black"/>
</svg>
